<svg xmlns="http://www.w3.org/2000/svg" width="32" height="32" viewBox="0 0 32 32">
  <defs>
    <linearGradient id="gradient" x1="0%" y1="0%" x2="100%" y2="100%">
      <stop offset="0%" style="stop-color:#3B82F6" />
      <stop offset="100%" style="stop-color:#8B5CF6" />
    </linearGradient>
  </defs>
  <circle cx="16" cy="16" r="14" fill="url(#gradient)" />
  <path d="M16 8a8 8 0 00-8 8 8 8 0 008 8 8 8 0 008-8 8 8 0 00-8-8zm0 14a6 6 0 01-6-6 6 6 0 016-6 6 6 0 016 6 6 6 0 01-6 6z" fill="white"/>
  <circle cx="16" cy="16" r="3" fill="white"/>
</svg>